# xmcd
#
# Track frame offsets:
#	150
#	19012
#	37070
#	53812
#	70955
#
# Disc length: 1171 seconds
#
# Revision: 1
# Processed by: cddbd v1.5.2PL0 Copyright (c) Steve Scherf et al.
# Submitted via: audiograbber 1.83.01
#
DISCID=3f049105
DTITLE=Hamlet - Hand In Hand [CDM)
DYEAR=1996
DGENRE=Dance
TTITLE0=Hand In Hand (Original)
TTITLE1=Feeling So High (Radio Cut)
TTITLE2=Hand In Hand (Club Edit)
TTITLE3=Feeling So High (Garage Mix)
TTITLE4=Hand In Hand (Ethnic Remix)
EXTD=TR.
EXTT0=
EXTT1=
EXTT2=
EXTT3=
EXTT4=
PLAYORDER=
